<?xml version="1.0" encoding="UTF-8"?>
<svg version="1.1" xmlns="http://www.w3.org/2000/svg" width="542" height="513">
<path d="M0 0 C178.86 0 357.72 0 542 0 C542 169.29 542 338.58 542 513 C363.14 513 184.28 513 0 513 C0 343.71 0 174.42 0 0 Z " fill="#FEFEFE" transform="translate(0,0)"/>
<path d="M0 0 C2.64 0 5.28 0 8 0 C8.49628906 1.19753906 8.99257813 2.39507813 9.50390625 3.62890625 C12.98965477 11.99798706 16.53894862 20.31225324 20.42407227 28.50415039 C23.08857001 34.13608424 25.57103425 39.83873274 28.03125 45.5625 C30.00748291 50.08322933 32.11268041 54.54346098 34.20547485 59.01095581 C37.48653864 66.02289363 40.68947451 73.06923991 43.875 80.125 C44.17681183 80.79265381 44.47862366 81.46030762 44.7895813 82.14819336 C48.93174281 91.31707525 53.01045133 100.50818583 56.89599609 109.78955078 C59.18841852 115.23420229 61.65264968 120.59083065 64.16174316 125.93815613 C67.46125952 132.97026937 70.69608866 140.03147716 73.92456055 147.09643555 C74.93230537 149.30113541 75.94169148 151.50507875 76.95117188 153.70898438 C81.37709176 163.38278453 85.727703 173.08825005 90.03335571 182.81613159 C91.56973262 186.28715505 93.1091696 189.75682035 94.6484375 193.2265625 C94.94838623 193.90278656 95.24833496 194.57901062 95.55737305 195.27572632 C104.24437819 214.85751084 113.01557378 234.40054094 121.81744385 253.93092346 C124.15665279 259.12304702 126.48954807 264.31795518 128.81640625 269.515625 C129.11254318 270.17703995 129.40868011 270.8384549 129.71379089 271.51991272 C131.06573591 274.54005258 132.41669055 277.56062811 133.76635742 280.58178711 C136.09891514 285.79506352 138.45481213 290.99529132 140.859375 296.17578125 C144.31367681 303.63734181 147.63842521 311.15481694 150.96777344 318.67266846 C152.63853802 322.43969332 154.31971562 326.20205829 156 329.96484375 C157.33405237 332.95540893 158.66726304 335.94634839 160 338.9375 C160.34761383 339.71760437 160.69522766 340.49770874 161.05337524 341.30145264 C165.32149694 350.8869911 169.57619282 360.47396359 173.52929688 370.19506836 C174.9744273 373.71779569 176.54394836 377.12841105 178.26953125 380.5234375 C182.09325183 388.07004595 185.46595563 395.82811711 188.91601562 403.55029297 C196.45360478 420.66669642 196.45360478 420.66669642 207 436 C207.49886719 436.65613281 207.99773437 437.31226563 208.51171875 437.98828125 C218.87763555 451.01748146 234.52083052 458.14026075 250 463 C250 467.62 250 472.24 250 477 C223.8064988 477.67432119 197.61250157 478.32583083 171.41758728 478.94300079 C169.1856537 478.99562286 166.95372739 479.04854361 164.72180176 479.10150146 C118.48297544 480.19009837 72.24844637 480.10663884 26 480 C26 475.38 26 470.76 26 466 C27.10923828 465.9906543 28.21847656 465.98130859 29.36132812 465.97167969 C33.50658206 465.93157898 37.6511094 465.86576602 41.79589844 465.79248047 C43.5842144 465.76438666 45.37265186 465.74311486 47.16113281 465.72900391 C49.74346602 465.70741249 52.32435619 465.66068291 54.90625 465.609375 C56.09112 465.60753204 56.09112 465.60753204 57.29992676 465.60565186 C63.82096501 465.43650087 69.05023402 463.54545443 74.0234375 459.25390625 C74.46945312 458.69574219 74.91546875 458.13757813 75.375 457.5625 C75.83648437 457.00691406 76.29796875 456.45132812 76.7734375 455.87890625 C80.49836174 450.17289173 81.10257308 444.6228883 80 438 C78.1060384 432.2796524 75.49981566 426.82604708 73.02539062 421.33984375 C71.58008761 418.04179992 70.35234875 414.69828965 69.125 411.3125 C66.32536133 403.6651323 63.19355974 396.16793426 60.04150391 388.66015625 C56.64406623 380.56435123 53.30799589 372.44518185 50 364.3125 C49.53118408 363.16031982 49.06236816 362.00813965 48.5793457 360.82104492 C46.7084001 356.21841567 44.84177953 351.61439025 43 347 C3.9132415 346.83719069 -35.16518125 347.11933712 -74.25 347.5 C-75.47812534 347.51195782 -76.70625069 347.52391563 -77.97159195 347.53623581 C-93.3144436 347.68606456 -108.65724299 347.84078488 -124 348 C-124.49323257 349.52906479 -124.49323257 349.52906479 -124.99642944 351.08901978 C-136.84060464 387.78958286 -136.84060464 387.78958286 -142.625 404.375 C-143.38121841 406.55040946 -144.1362975 408.72619896 -144.88925171 410.90274048 C-145.54442415 412.79583823 -146.20296007 414.68777105 -146.86181641 416.57958984 C-150.50615449 427.53136515 -151.7435379 437.75152665 -146.84765625 448.5390625 C-141.85961078 457.68611542 -134.88261801 462.984964 -125 466 C-124.40735352 466.18167725 -123.81470703 466.36335449 -123.20410156 466.55053711 C-120.147082 467.17392801 -117.16455683 467.22393264 -114.046875 467.31640625 C-113.38665344 467.33718735 -112.72643188 467.35796844 -112.04620361 467.37937927 C-109.94756985 467.44450147 -107.84881628 467.50358502 -105.75 467.5625 C-104.32290453 467.60572079 -102.89582095 467.6493362 -101.46875 467.69335938 C-97.97928741 467.80088351 -94.48972743 467.90023285 -91 468 C-91 472.62 -91 477.24 -91 482 C-101.81235179 482.1772594 -112.62482493 482.34375085 -123.4375 482.5 C-124.25895634 482.51187725 -125.08041267 482.5237545 -125.92676163 482.53599167 C-154.34763075 482.94308058 -182.76384698 483.08959918 -211.1875 483.0625 C-212.54407274 483.06121597 -212.54407274 483.06121597 -213.92805099 483.05990601 C-224.95205801 483.04868126 -235.97602353 483.02801135 -247 483 C-247 478.05 -247 473.1 -247 468 C-244.3084375 467.5359375 -244.3084375 467.5359375 -241.5625 467.0625 C-224.5083535 463.06833715 -209.20987894 452.55105478 -199.63671875 437.83203125 C-193.79393713 427.72220625 -189.06181451 417.0634375 -184.375 406.3828125 C-181.42489583 399.67029401 -178.39656433 392.99304694 -175.375 386.3125 C-174.77380107 384.9822787 -174.17264578 383.65203767 -173.5715332 382.32177734 C-170.77245616 376.12822822 -167.97107801 369.93572235 -165.16825867 363.74386597 C-163.93409371 361.01705199 -162.70046818 358.28999436 -161.46713257 355.56280518 C-160.86556239 354.23262542 -160.26385815 352.90250628 -159.66201782 351.57244873 C-156.40980269 344.38305904 -153.18509012 337.18428297 -150.0625 329.9375 C-147.48829087 323.98951677 -144.66374751 318.22429712 -141.67578125 312.4765625 C-139.95380489 308.90416399 -138.4927741 305.28937629 -137.04223633 301.60107422 C-135.37188457 297.43243341 -133.53606673 293.34207107 -131.6875 289.25 C-131.10101685 287.94639526 -131.10101685 287.94639526 -130.50268555 286.61645508 C-128.21859142 281.57580798 -125.83420948 276.61323918 -123.3125 271.6875 C-120.58163117 266.3329789 -118.2981223 260.91542125 -116.12597656 255.32080078 C-114.42576895 250.97040307 -112.48666606 246.84587476 -110.33984375 242.703125 C-108.64840331 239.29065625 -107.13518629 235.80763299 -105.625 232.3125 C-101.75466869 223.36834212 -97.62757667 214.55525727 -93.4609375 205.74609375 C-84.49960228 186.69773835 -76.00161588 167.42153075 -67.60253906 148.11962891 C-65.85586429 144.12308033 -64.10931601 140.14472049 -62.12890625 136.2578125 C-58.86369217 129.84228206 -55.97014459 123.24324637 -53 116.6875 C-52.33269601 115.21760445 -51.66537812 113.74771521 -50.99804688 112.27783203 C-46.28135483 101.87792666 -41.6322428 91.44934501 -37.0090332 81.00756836 C-33.43894696 72.95548162 -29.76893973 64.96082782 -26 57 C-21.77188603 48.01650137 -17.63057148 38.99896532 -13.56713867 29.93969727 C-9.08248283 19.94267186 -4.5409704 9.97154192 0 0 Z " fill="#322F31" transform="translate(265,16)"/>
<path d="M0 0 C0.99 0.33 1.98 0.66 3 1 C4.11742881 3.66990991 5.06088644 6.25157233 5.9375 9 C7.68955723 14.35534473 9.6029893 19.51331374 11.94018555 24.64257812 C13.88342967 28.96507645 15.64911042 33.36170844 17.4375 37.75 C17.83582031 38.72517578 18.23414063 39.70035156 18.64453125 40.70507812 C21.04682273 46.60482338 23.37510084 52.52621813 25.62890625 58.484375 C27.11798091 62.30251515 28.67938092 66.08657014 30.24682617 69.87304688 C33.69805949 78.2120531 36.97781202 86.55382237 39.90429688 95.09106445 C41.82291677 100.63632769 44.08242219 105.98969937 46.44140625 111.36328125 C48.49494152 116.15486354 50.36966147 121.00702569 52.23828125 125.87304688 C53.86207295 130.09418681 55.51800151 134.29904997 57.22265625 138.48828125 C57.77590576 139.85122314 57.77590576 139.85122314 58.34033203 141.24169922 C59.05975806 143.00936771 59.78325226 144.77538712 60.51123047 146.53955078 C60.99873779 147.7400708 60.99873779 147.7400708 61.49609375 148.96484375 C61.78669678 149.6724585 62.0772998 150.38007324 62.37670898 151.10913086 C63 153 63 153 63 156 C32.20877393 156.99454523 1.42906236 157.0890295 -29.375 157.0625 C-30.37595325 157.06164398 -31.37690651 157.06078796 -32.40819168 157.05990601 C-44.93881186 157.04840392 -57.46940663 157.0281694 -70 157 C-68.60220763 152.72523151 -67.02905418 148.66060299 -65.171875 144.5625 C-64.76464203 143.65951172 -64.76464203 143.65951172 -64.34918213 142.73828125 C-63.48553844 140.82426344 -62.61804493 138.91202526 -61.75 137 C-60.61800727 134.50080368 -59.48798233 132.00072687 -58.359375 129.5 C-57.9398909 128.57172394 -57.9398909 128.57172394 -57.51193237 127.62469482 C-55.55465388 123.27724621 -53.66824312 118.9040918 -51.8046875 114.515625 C-49.80882989 109.83050086 -47.72272859 105.26743038 -45.375 100.75 C-42.96120141 96.10372102 -40.93542657 91.41844025 -39.02246094 86.55273438 C-37.44230016 82.60761474 -35.69523393 78.74353754 -33.9375 74.875 C-33.36104736 73.59919067 -33.36104736 73.59919067 -32.77294922 72.29760742 C-30.20352226 66.62136036 -27.60401319 60.95917744 -24.99926758 55.29907227 C-24.54575928 54.31350342 -24.09225098 53.32793457 -23.625 52.3125 C-23.16697998 51.31726318 -22.70895996 50.32202637 -22.23706055 49.29663086 C-18.3538214 40.83118305 -14.60063698 32.31169 -10.8684082 23.77880859 C-7.36838465 15.79240859 -3.7503872 7.87197314 0 0 Z " fill="#FDFDFD" transform="translate(229,167)"/>
<path d="M0 0 C2.61376953 0.29394531 2.61376953 0.29394531 4.13769531 1.81445312 C4.77940674 2.89484863 4.77940674 2.89484863 5.43408203 3.99707031 C5.93713867 4.82013672 6.44019531 5.64320313 6.95849609 6.49121094 C7.50473633 7.41611328 8.05097656 8.34101563 8.61376953 9.29394531 C9.90205411 11.35172421 11.19115647 13.40899129 12.48095703 15.46582031 C13.8193144 17.65705248 15.15521677 19.84978582 16.48876953 22.04394531 C17.17712891 23.15382813 17.86548828 24.26371094 18.57470703 25.40722656 C19.22439453 26.4784375 19.87408203 27.54964844 20.54345703 28.65332031 C21.13368652 29.6172168 21.72391602 30.58111328 22.33203125 31.57421875 C23.68444473 34.44391135 23.97383475 36.16600828 23.61376953 39.29394531 C22.61376953 40.29394531 22.61376953 40.29394531 20.23413086 40.59765625 C17.61376953 40.29394531 17.61376953 40.29394531 16.03051758 38.68554688 C15.36596558 37.57131348 15.36596558 37.57131348 14.68798828 36.43457031 C14.18444824 35.61150391 13.6809082 34.7884375 13.16210938 33.94042969 C12.65115723 33.06708984 12.14020508 32.19375 11.61376953 31.29394531 C11.10152832 30.45669922 10.58928711 29.61945313 10.06152344 28.75683594 C8.49686538 26.19711241 6.95862421 23.62311769 5.42626953 21.04394531 C4.90613281 20.17253906 4.38599609 19.30113281 3.85009766 18.40332031 C2.86070252 16.74548326 1.87341703 15.08638457 0.88867188 13.42578125 C-0.12993996 11.72250309 -1.17722387 10.03638287 -2.23388672 8.35644531 C-3.64398988 5.83259966 -3.70265577 4.14177299 -3.38623047 1.29394531 C-2.38623047 0.29394531 -2.38623047 0.29394531 0 0 Z " fill="#000000" transform="translate(391.38623046875,419.7060546875)"/>
<path d="M0 0 C1.2684375 0.12375 1.2684375 0.12375 2.5625 0.25 C4.77980588 3.57595883 5.28071575 5.92297702 6.0703125 9.82421875 C6.20065887 10.46688187 6.33100525 11.10954498 6.46530151 11.77168274 C6.73916551 13.13186843 7.00960452 14.49274758 7.27685547 15.85424805 C7.68304498 17.91489912 8.10439113 19.97202969 8.52734375 22.02929688 C11.07539879 34.67331392 11.07539879 34.67331392 10.5625 41.25 C9.5625 42.25 9.5625 42.25 7.125 42.5 C6.279375 42.4175 5.43375 42.335 4.5625 42.25 C2.34519412 38.92404117 1.84428425 36.57702298 1.0546875 32.67578125 C0.92434113 32.03311813 0.79399475 31.39045502 0.65969849 30.72831726 C0.38583449 29.36813157 0.11539548 28.00725242 -0.15185547 26.64575195 C-0.55804498 24.58510088 -0.97939113 22.52797031 -1.40234375 20.47070312 C-3.95039879 7.82668608 -3.95039879 7.82668608 -3.4375 1.25 C-2.4375 0.25 -2.4375 0.25 0 0 Z " fill="#000000" transform="translate(265.4375,49.75)"/>
<path d="M0 0 C2.375 0.3125 2.375 0.3125 3.375 1.3125 C3.33584505 8.5170111 -0.49630539 13.47090326 -4.375 19.3125 C-4.99632813 20.2715625 -5.61765625 21.230625 -6.2578125 22.21875 C-8.02459596 24.93229084 -9.81811123 27.62554522 -11.625 30.3125 C-12.1106543 31.04791016 -12.59630859 31.78332031 -13.09667969 32.54101562 C-14.20823985 34.17727197 -15.4081892 35.7529256 -16.625 37.3125 C-19.375 37.8125 -19.375 37.8125 -21.625 37.3125 C-21.955 36.9825 -22.285 36.6525 -22.625 36.3125 C-22.26324364 31.05414173 -21.00600248 27.6829514 -18.1328125 23.30078125 C-17.42769531 22.21345703 -16.72257812 21.12613281 -15.99609375 20.00585938 C-15.24755522 18.87880038 -14.49885584 17.75184819 -13.75 16.625 C-13.00800657 15.48704983 -12.26711107 14.34838296 -11.52734375 13.20898438 C-9.58052287 10.22846898 -7.62655766 7.25652812 -5.625 4.3125 C-4.84745361 3.15850708 -4.84745361 3.15850708 -4.05419922 1.98120117 C-2.625 0.3125 -2.625 0.3125 0 0 Z " fill="#000000" transform="translate(104.625,419.6875)"/>
<path d="M0 0 C1.88472859 0.15344209 3.77427874 0.24959571 5.6640625 0.31640625 C6.78554687 0.35830078 7.90703125 0.40019531 9.0625 0.44335938 C10.238125 0.48267578 11.41375 0.52199219 12.625 0.5625 C14.40003906 0.62727539 14.40003906 0.62727539 16.2109375 0.69335938 C19.14050328 0.79967426 22.07015588 0.90170642 25 1 C25 1.33 25 1.66 25 2 C10.81 2 -3.38 2 -18 2 C-18 1.34 -18 0.68 -18 0 C-12.65450281 -1.12536783 -5.06932075 -2.53466037 0 0 Z " fill="#524F50" transform="translate(223,361)"/>
<path d="M0 0 C0.99 0 1.98 0 3 0 C3.33 2.31 3.66 4.62 4 7 C3.01 7.33 2.02 7.66 1 8 C0.34 7.67 -0.32 7.34 -1 7 C-1.33 8.32 -1.66 9.64 -2 11 C-2.66 11 -3.32 11 -4 11 C-4 11.99 -4 12.98 -4 14 C-6 15.6875 -6 15.6875 -8 17 C-8.66 16.67 -9.32 16.34 -10 16 C-9.41992188 15.27296875 -9.41992188 15.27296875 -8.828125 14.53125 C-5.22058046 9.88787584 -2.47597386 5.33286677 0 0 Z " fill="#4B4A4C" transform="translate(71,443)"/>
<path d="M0 0 C0.66 0.33 1.32 0.66 2 1 C2 3.31 2 5.62 2 8 C1.34 8 0.68 8 0 8 C-0.0825 8.928125 -0.165 9.85625 -0.25 10.8125 C-1 14 -1 14 -3.0625 15.875 C-4.0215625 16.431875 -4.0215625 16.431875 -5 17 C-6.36420006 12.90739982 -4.7664515 10.52987341 -3.0625 6.8125 C-2.77181641 6.15830078 -2.48113281 5.50410156 -2.18164062 4.83007812 C-1.46304657 3.21618656 -0.7326412 1.60756345 0 0 Z " fill="#4D4D4E" transform="translate(79,425)"/>
<path d="M0 0 C1.65 0.33 3.3 0.66 5 1 C4.360625 1.7425 3.72125 2.485 3.0625 3.25 C1.21666593 5.7111121 0.43930826 7.03466926 0 10 C-1.32 10 -2.64 10 -4 10 C-2.8905928 6.51329166 -1.73662334 3.22515763 0 0 Z " fill="#494446" transform="translate(222,111)"/>
<path d="M0 0 C-0.33 0.99 -0.66 1.98 -1 3 C-2.98 3 -4.96 3 -7 3 C-6.67 7.29 -6.34 11.58 -6 16 C-6.66 16 -7.32 16 -8 16 C-8 11.05 -8 6.1 -8 1 C-2 0 -2 0 0 0 Z " fill="#535254" transform="translate(26,483)"/>
<path d="M0 0 C0.99 0.99 1.98 1.98 3 3 C2.401875 3.86625 1.80375 4.7325 1.1875 5.625 C-0.82044534 8.62619944 -2.44655098 11.73775706 -4 15 C-4.66 15 -5.32 15 -6 15 C-4.36041242 9.76727367 -2.61047965 4.84803364 0 0 Z " fill="#524D4F" transform="translate(229,95)"/>
<path d="M0 0 C0.99 0.33 1.98 0.66 3 1 C2.67 2.32 2.34 3.64 2 5 C1.34 5 0.68 5 0 5 C0.33 5.99 0.66 6.98 1 8 C-0.32 8.99 -1.64 9.98 -3 11 C-3.33 10.34 -3.66 9.68 -4 9 C-3.22265625 6.8359375 -3.22265625 6.8359375 -2.0625 4.375 C-1.68222656 3.55773437 -1.30195313 2.74046875 -0.91015625 1.8984375 C-0.60980469 1.27195312 -0.30945313 0.64546875 0 0 Z " fill="#4D4B4B" transform="translate(132,309)"/>
<path d="M0 0 C1.1898968 4.31337592 0.94128806 7.64654271 0 12 C-1.65 12.33 -3.3 12.66 -5 13 C-4.54554036 11.58208592 -4.08625056 10.16571954 -3.625 8.75 C-3.24214844 7.56664063 -3.24214844 7.56664063 -2.8515625 6.359375 C-2.04826333 4.13372042 -1.10288338 2.09068328 0 0 Z " fill="#504C4D" transform="translate(239,73)"/>
<path d="M0 0 C0.66 0 1.32 0 2 0 C2.6875 1.625 2.6875 1.625 3 4 C1.5625 7.25 1.5625 7.25 0 10 C-0.99 9.34 -1.98 8.68 -3 8 C-2.37240135 5.07120629 -1.41377341 2.63904371 0 0 Z " fill="#474345" transform="translate(208,205)"/>
<path d="M0 0 C0.99 0.33 1.98 0.66 3 1 C2.01 2.98 1.02 4.96 0 7 C-1.32 6.67 -2.64 6.34 -4 6 C-4 4.35 -4 2.7 -4 1 C-3.01 1.33 -2.02 1.66 -1 2 C-0.67 1.34 -0.34 0.68 0 0 Z " fill="#474445" transform="translate(181,268)"/>
<path d="M0 0 C0.33 0 0.66 0 1 0 C0.979375 0.7425 0.95875 1.485 0.9375 2.25 C0.99328688 4.70462279 1.3069904 6.66109261 2 9 C1.360625 9.12375 0.72125 9.2475 0.0625 9.375 C-0.618125 9.58125 -1.29875 9.7875 -2 10 C-2.33 10.66 -2.66 11.32 -3 12 C-3.66 11.67 -4.32 11.34 -5 11 C-3.35 7.37 -1.7 3.74 0 0 Z " fill="#555152" transform="translate(180,203)"/>
<path d="M0 0 C2.475 0.495 2.475 0.495 5 1 C6.125 6.75 6.125 6.75 5 9 C4.34 9 3.68 9 3 9 C2.01 6.03 1.02 3.06 0 0 Z " fill="#474344" transform="translate(246,205)"/>
<path d="M0 0 C2.97 0.99 5.94 1.98 9 3 C9 3.99 9 4.98 9 6 C8.34 6 7.68 6 7 6 C7 5.34 7 4.68 7 4 C4.525 5.485 4.525 5.485 2 7 C1.896875 6.360625 1.79375 5.72125 1.6875 5.0625 C1.460625 4.381875 1.23375 3.70125 1 3 C0.01 2.67 -0.98 2.34 -2 2 C-1.34 1.34 -0.68 0.68 0 0 Z " fill="#434246" transform="translate(131,479)"/>
<path d="M0 0 C0.66 0.99 1.32 1.98 2 3 C0.64566838 6.99171426 -0.67180762 10.30574902 -4 13 C-4.33 12.34 -4.66 11.68 -5 11 C-4.00390625 8.3984375 -4.00390625 8.3984375 -2.5625 5.375 C-2.08941406 4.37210937 -1.61632812 3.36921875 -1.12890625 2.3359375 C-0.75636719 1.56507813 -0.38382812 0.79421875 0 0 Z " fill="#4C4B4C" transform="translate(102,375)"/>
<path d="M0 0 C0.99 0.33 1.98 0.66 3 1 C2.01 3.97 1.02 6.94 0 10 C-0.66 9.67 -1.32 9.34 -2 9 C-2.25 3.375 -2.25 3.375 0 0 Z " fill="#494647" transform="translate(190,246)"/>
<path d="M0 0 C2.1385485 2.1385485 2.42655063 3.13275314 3 6 C1.68 6.33 0.36 6.66 -1 7 C-1 7.66 -1 8.32 -1 9 C-1.66 9 -2.32 9 -3 9 C-2.01 6.03 -1.02 3.06 0 0 Z " fill="#4E4B4E" transform="translate(149,271)"/>
<path d="M0 0 C2.22825644 2.22825644 2.69239369 3.65761628 3.625 6.625 C3.88539063 7.44226563 4.14578125 8.25953125 4.4140625 9.1015625 C4.60742188 9.72804687 4.80078125 10.35453125 5 11 C4.01 10.67 3.02 10.34 2 10 C1.6278958 8.67696283 1.29369827 7.34262065 1 6 C0.34 5.67 -0.32 5.34 -1 5 C-0.67 3.35 -0.34 1.7 0 0 Z " fill="#403C3D" transform="translate(372,239)"/>
<path d="M0 0 C0.99 0.66 1.98 1.32 3 2 C1.62845496 4.95409701 0.01136276 7.44008376 -2 10 C-2.66 9.67 -3.32 9.34 -4 9 C-2.68 6.03 -1.36 3.06 0 0 Z " fill="#575455" transform="translate(154,260)"/>
<path d="M0 0 C0.33 0 0.66 0 1 0 C1.75 2.75 1.75 2.75 2 6 C0.0625 8.375 0.0625 8.375 -2 10 C-3.39195915 5.82412255 -1.82323219 3.86525224 0 0 Z " fill="#4E4A4C" transform="translate(243,64)"/>
<path d="M0 0 C0.33 0.99 0.66 1.98 1 3 C-0.75 5.0625 -0.75 5.0625 -3 7 C-4.32 6.67 -5.64 6.34 -7 6 C-4.69 4.02 -2.38 2.04 0 0 Z " fill="#4C4B4F" transform="translate(57,464)"/>
<path d="M0 0 C0.66 0.33 1.32 0.66 2 1 C1.75 3.375 1.75 3.375 1 6 C-1.0625 7.3125 -1.0625 7.3125 -3 8 C-1.125 2.25 -1.125 2.25 0 0 Z " fill="#504E50" transform="translate(254,40)"/>
<path d="M0 0 C1.98 0 3.96 0 6 0 C5.67 0.99 5.34 1.98 5 3 C2.52260646 3.90837763 0.66420516 4 -2 4 C-1.34 2.68 -0.68 1.36 0 0 Z " fill="#504E4F" transform="translate(265,16)"/>
<path d="M0 0 C2.99324263 1.0975223 3.84610901 1.67682892 5.25 4.625 C5.4975 5.40875 5.745 6.1925 6 7 C4.68 6.34 3.36 5.68 2 5 C2 4.34 2 3.68 2 3 C1.01 3.33 0.02 3.66 -1 4 C-1.33 3.34 -1.66 2.68 -2 2 C-1.34 2 -0.68 2 0 2 C0 1.34 0 0.68 0 0 Z " fill="#292728" transform="translate(460,439)"/>
<path d="M0 0 C3.36591866 1.44253657 5.51047079 3.33264727 8 6 C7.67 6.66 7.34 7.32 7 8 C6.01 8 5.02 8 4 8 C3.71125 7.236875 3.4225 6.47375 3.125 5.6875 C2.03730987 2.84970692 2.03730987 2.84970692 0 0 Z " fill="#201F1F" transform="translate(472,455)"/>
<path d="M0 0 C2 3 2 3 1.625 5.6875 C1.41875 6.450625 1.2125 7.21375 1 8 C-0.32 7.67 -1.64 7.34 -3 7 C-2.01 4.69 -1.02 2.38 0 0 Z " fill="#4D4A4E" transform="translate(91,399)"/>
<path d="M0 0 C0.66 0.99 1.32 1.98 2 3 C1.67 3.99 1.34 4.98 1 6 C0.01 5.67 -0.98 5.34 -2 5 C-2.6875 2.9375 -2.6875 2.9375 -3 1 C-2.01 0.67 -1.02 0.34 0 0 Z " fill="#464143" transform="translate(214,194)"/>
<path d="M0 0 C0.99 0 1.98 0 3 0 C2.1875 2.4375 2.1875 2.4375 1 5 C0.01 5.33 -0.98 5.66 -2 6 C-1.34 4.02 -0.68 2.04 0 0 Z " fill="#524F50" transform="translate(246,58)"/>
<path d="M0 0 C2.1385485 2.1385485 2.42655063 3.13275314 3 6 C1.68 6 0.36 6 -1 6 C-1.042721 4.33388095 -1.04063832 2.66617115 -1 1 C-0.67 0.67 -0.34 0.34 0 0 Z " fill="#4B4949" transform="translate(283,41)"/>
</svg>
